HIERARCHY
ROOT Hips
{
	OFFSET -3.958830 18.904000 13.208200
	CHANNELS 6 Xposition Yposition Zposition Zrotation Yrotation Xrotation 
	JOINT LHipJoint
	{
		OFFSET 0.000000 0.000000 0.000000
		CHANNELS 3 Zrotation Yrotation Xrotation
		JOINT LeftUpLeg
		{
			OFFSET 1.800000 -1.400000 0.085000
			CHANNELS 3 Zrotation Yrotation Xrotation
			JOINT LeftLeg
			{
				OFFSET 2.215000 -6.000000 0.000000
				CHANNELS 3 Zrotation Yrotation Xrotation
				JOINT LeftFoot
				{
					OFFSET 2.500000 -6.900000 0.000000
					CHANNELS 3 Zrotation Yrotation Xrotation
					JOINT LeftToeBase
					{
						OFFSET 0.200000 -0.500000 1.950000
						CHANNELS 3 Zrotation Yrotation Xrotation
						End Site
						{
							OFFSET 0.000000 0.000000 0.000000
						}
					}
				}
			}
		}
	}
	JOINT RHipJoint
	{
		OFFSET 0.000000 0.000000 0.000000
		CHANNELS 3 Zrotation Yrotation Xrotation
		JOINT RightUpLeg
		{
			OFFSET -1.800000 -1.400000 0.085000
			CHANNELS 3 Zrotation Yrotation Xrotation
			JOINT RightLeg
			{
				OFFSET -2.215000 -6.000000 0.000000
				CHANNELS 3 Zrotation Yrotation Xrotation
				JOINT RightFoot
				{
					OFFSET -2.500000 -6.900000 0.000000
					CHANNELS 3 Zrotation Yrotation Xrotation
					JOINT RightToeBase
					{
						OFFSET -0.200000 -0.500000 1.950000
						CHANNELS 3 Zrotation Yrotation Xrotation
						End Site
						{
							OFFSET 0.000000 0.000000 0.000000
						}
					}
				}
			}
		}
	}
	JOINT LowerBack
	{
		OFFSET 0.000000 0.000000 0.000000
		CHANNELS 3 Zrotation Yrotation Xrotation
		JOINT Spine
		{
			OFFSET -0.087000 1.940000 -0.288900
			CHANNELS 3 Zrotation Yrotation Xrotation
			JOINT Spine1
			{
				OFFSET 0.000000 1.950000 0.060000
				CHANNELS 3 Zrotation Yrotation Xrotation
				JOINT Neck
				{
					OFFSET 0.000000 0.000000 0.000000
					CHANNELS 3 Zrotation Yrotation Xrotation
					JOINT Neck1
					{
						OFFSET 0.000000 1.600000 0.340000
						CHANNELS 3 Zrotation Yrotation Xrotation
						JOINT Head
						{
							OFFSET 0.000000 1.667000 -0.240000
							CHANNELS 3 Zrotation Yrotation Xrotation
							End Site
							{
								OFFSET 0.000000 0.000000 0.000000
							}
						}
					}
				}
				JOINT LeftShoulder
				{
					OFFSET 0.000000 0.000000 0.000000
					CHANNELS 3 Zrotation Yrotation Xrotation
					JOINT LeftArm
					{
						OFFSET 2.700000 1.550000 -0.730000
						CHANNELS 3 Zrotation Yrotation Xrotation
						JOINT LeftForeArm
						{
							OFFSET 5.450000 0.000000 0.000000
							CHANNELS 3 Zrotation Yrotation Xrotation
							JOINT LeftHand
							{
								OFFSET 3.450000 0.000000 0.000000
								CHANNELS 3 Zrotation Yrotation Xrotation
								JOINT LeftHandIndex1
								{
									OFFSET 0.750000 0.000000 0.000000
									CHANNELS 3 Zrotation Yrotation Xrotation
									End Site
									{
										OFFSET 0.000000 0.000000 0.000000
									}
								}
							}
						}
					}
				}
				JOINT RightShoulder
				{
					OFFSET 0.000000 0.000000 0.000000
					CHANNELS 3 Zrotation Yrotation Xrotation
					JOINT RightArm
					{
						OFFSET -2.700000 1.550000 -0.730000
						CHANNELS 3 Zrotation Yrotation Xrotation
						JOINT RightForeArm
						{
							OFFSET -5.450000 0.000000 0.000000
							CHANNELS 3 Zrotation Yrotation Xrotation
							JOINT RightHand
							{
								OFFSET -3.450000 0.000000 0.000000
								CHANNELS 3 Zrotation Yrotation Xrotation
								JOINT RightHandIndex1
								{
									OFFSET -0.750000 0.000000 0.000000
									CHANNELS 3 Zrotation Yrotation Xrotation
									End Site
									{
										OFFSET 0.000000 0.000000 0.000000
									}
								}
							}
						}
					}
				}
			}
		}
	}
}
MOTION
Frames: 14
Frame Time: 0.016667
0.399090 16.946750 -1.029270 -0.580936 54.730185 -1.153609 -15.546228 10.109877 5.825542 14.639834 -5.873676 -45.125751 -20.874145 25.386066 52.961230 0.644440 13.315704 0.098756 0.521520 -0.110590 0.469740 18.189707 -10.398700 2.177871 -26.596861 4.477787 -21.625870 11.915946 -9.440649 25.241269 -0.258062 -5.123978 2.692772 0.184680 0.231060 -0.083540 -4.243042 1.732792 -9.098861 13.996879 6.483058 24.733157 -8.510149 11.423623 3.082670 5.060801 10.053126 -11.272664 16.749039 -28.093800 29.464554 6.254950 -23.232460 -18.993630 -22.655795 -17.019689 8.455695 -15.428217 5.423210 -3.789589 158.775758 -73.087902 -160.278196 -3.638459 2.935402 0.962440 -0.019520 -0.223150 0.145200 10.870461 15.805087 3.690140 -3.644353 16.034850 -3.159114 6.166500 33.623448 3.725873 1.655669 -1.188844 -0.589460 0.617820 0.082560 -0.511440 
0.387090 16.839000 -1.043920 -0.069976 54.205941 -1.879427 -15.541925 9.764739 6.172254 18.249663 -4.511139 -46.629148 -23.080232 28.584552 55.176160 0.860834 14.230622 -0.189364 0.585560 -0.017080 0.511280 18.264018 -10.285950 2.058926 -27.525715 4.997518 -21.293655 11.972962 -10.096315 27.427393 -0.359570 -5.429698 2.565721 0.227500 0.188100 -0.066930 -4.372190 2.024635 -9.298532 15.793377 5.906870 26.579080 -10.951025 11.847392 2.646870 5.836698 10.463608 -11.310571 17.686684 -28.784350 29.801640 6.938040 -22.608260 -21.670750 -25.138926 -16.954896 8.552680 -18.399889 4.256756 -4.272997 152.149462 -71.540411 -151.969060 -3.651634 2.904616 1.005210 -0.051080 -0.156300 0.151630 11.548260 15.696869 3.710247 -3.193275 15.980227 -3.146692 6.337954 32.066043 3.562269 1.644090 -1.158666 -0.564350 0.627820 0.057070 -0.516740 
0.381240 16.709480 -1.054890 1.068488 53.495849 -1.795854 -15.532545 9.521402 6.383199 21.166142 -3.148507 -47.050457 -24.128856 30.836595 56.689791 1.030918 14.799589 -0.324031 0.606820 0.020900 0.497790 18.331303 -10.231071 1.974741 -28.967875 5.282775 -21.271005 11.541770 -10.646009 29.590193 -0.407411 -5.759595 2.451152 0.250940 0.215810 -0.068980 -4.465190 2.279892 -9.427837 16.548599 5.346434 27.471689 -12.665332 11.814705 2.842554 6.481730 10.183703 -11.144787 17.297714 -28.268064 29.975384 7.725930 -22.448970 -21.584950 -27.065563 -16.587546 8.677523 -21.741166 3.498250 -4.878015 148.317225 -70.068416 -147.211773 -3.671973 2.900639 0.983450 -0.043220 -0.161020 0.183070 12.115681 15.808124 3.556156 -3.097729 16.098592 -3.215578 8.400339 32.814157 4.070543 1.638192 -1.211525 -0.557740 0.644250 0.038700 -0.491060 
0.394440 16.560830 -1.055950 1.786051 53.225855 -1.541842 -15.524362 9.264185 6.556708 24.105397 -1.814859 -47.379559 -23.560037 32.608942 59.192805 1.159320 15.269642 -0.465157 0.685950 0.127050 0.553850 18.406152 -10.179324 1.906246 -30.471903 5.324298 -21.187294 11.332410 -11.233182 31.126181 -0.476501 -6.048194 2.326966 0.304540 0.170290 -0.057290 -4.601955 2.575776 -9.546977 17.420825 4.550238 27.134913 -14.373474 11.306117 3.354464 7.330309 10.118074 -11.058023 17.493693 -27.948690 29.699434 6.872200 -21.522870 -22.131820 -28.790513 -16.169444 9.045113 -25.245743 3.047603 -5.318563 145.354349 -67.681839 -142.544234 -3.677820 2.905111 0.965600 -0.057070 -0.127020 0.196340 12.145660 15.494155 3.268289 -1.474883 16.104896 -3.765402 8.779271 38.448800 4.635456 1.601860 -1.324043 -0.514720 0.620490 -0.014210 -0.487880 
0.391610 16.425190 -1.077920 1.595251 53.398867 -2.183926 -15.530365 9.186624 6.622250 26.594867 -0.959349 -47.327645 -20.391401 32.603595 62.568070 1.245160 15.510579 -0.518341 0.728080 0.178920 0.573390 18.446979 -10.124906 1.884520 -31.280097 5.181073 -21.482177 11.150987 -11.967334 33.104920 -0.550249 -6.365849 2.217305 0.313340 0.148090 -0.044960 -4.724528 2.619055 -9.666784 19.082005 2.642300 27.397828 -16.028049 10.005968 3.994806 8.024019 8.962254 -11.068760 15.224451 -26.223325 30.211554 6.955930 -20.660450 -22.532750 -29.462794 -16.050107 9.365157 -28.957377 1.966742 -5.910287 142.823354 -65.677687 -138.374983 -3.658751 2.900827 0.947050 -0.071590 -0.106180 0.227440 11.481445 16.274347 3.353702 0.374472 15.719551 -5.530709 8.045204 48.182739 5.023093 1.555657 -1.472615 -0.476680 0.583920 -0.068460 -0.469660 
0.393480 16.297780 -1.092470 1.229075 52.010722 -3.269294 -15.523395 9.359602 6.464499 28.988537 0.516374 -45.128551 -16.646886 31.600895 64.457309 1.186150 15.437893 -0.514998 0.721160 0.143790 0.585460 18.467981 -10.115020 1.926050 -31.470272 5.227048 -22.611861 10.222871 -12.346094 35.593465 -0.598189 -6.600704 2.134253 0.288750 0.144790 -0.032150 -4.747692 2.511024 -9.697683 20.033442 1.235558 27.731046 -16.877679 8.995743 4.805989 8.541054 7.678472 -11.289279 12.754579 -23.964644 31.531616 7.159000 -19.561000 -23.054560 -29.657688 -16.348811 9.663475 -32.426214 0.716479 -6.493462 141.415968 -65.086462 -136.823146 -3.652819 2.876969 0.972140 -0.081650 -0.103900 0.224090 10.740743 17.751422 3.603571 2.863608 16.163005 -7.475360 7.530999 56.240758 4.958676 1.496260 -1.543465 -0.484310 0.563730 -0.069470 -0.482330 
0.389320 16.181740 -1.095360 -0.143136 50.093117 -5.238342 -15.509920 9.678692 6.155366 31.720625 2.256931 -41.656899 -12.472647 29.537501 64.930663 1.096450 14.986784 -0.419811 0.731440 0.151440 0.598450 18.479037 -10.123126 2.014959 -30.570038 5.469188 -24.084136 9.162649 -12.605254 38.626717 -0.672407 -6.848223 2.051296 0.263350 0.120310 -0.001860 -4.771177 2.322382 -9.679517 21.059403 -0.216533 27.746144 -17.202138 7.794196 5.743676 8.905336 6.371350 -11.483038 10.329594 -21.246158 33.354000 7.472710 -18.107420 -23.692450 -29.783893 -17.326103 10.142362 -34.567506 -0.885433 -7.022980 134.933513 -63.636662 -126.975553 -3.706696 2.725300 0.961790 -0.097470 -0.080460 0.221050 10.309609 19.929312 3.555042 5.218768 18.635226 -8.781746 6.108334 60.512902 4.113696 1.476994 -1.573632 -0.438230 0.513290 -0.086210 -0.471630 
0.379800 16.072380 -1.095230 -1.495076 48.734299 -7.221451 -15.515992 10.161241 5.678088 33.915956 3.362465 -37.814810 -7.706146 26.214846 64.207290 0.916391 14.252238 -0.231602 0.731190 0.146770 0.574640 18.455084 -10.111873 2.158980 -29.569271 5.467705 -25.766498 8.004105 -12.953979 42.130600 -0.754290 -7.222431 1.943237 0.251230 0.147060 0.016010 -4.701016 1.872142 -9.596363 20.856723 -1.474687 27.200174 -15.674992 6.146764 7.270959 8.941291 4.725437 -11.393349 7.464371 -17.763786 35.053203 8.078710 -16.705970 -23.444100 -28.882703 -18.453953 10.399253 -36.327043 -2.750785 -7.358771 126.166605 -63.513525 -114.751271 -3.785625 2.411665 0.940290 -0.089280 -0.093820 0.237560 9.771358 22.289444 3.192989 6.910359 21.995779 -9.440308 5.014147 62.851107 3.330483 1.458864 -1.571504 -0.420040 0.497940 -0.085150 -0.450070 
0.392610 15.969590 -1.088980 -3.191318 46.449765 -9.437865 -15.498509 10.659502 5.042774 36.378083 4.554562 -32.384713 -3.934568 22.982664 61.157467 0.692388 13.276186 0.018628 0.820850 0.254060 0.628070 18.440068 -10.145943 2.390609 -28.457109 5.618757 -27.546998 7.429170 -13.310668 45.164676 -0.877739 -7.605575 1.820046 0.308060 0.118240 0.037410 -4.669976 1.618028 -9.457871 20.390162 -2.162352 25.833404 -13.722286 4.561837 9.193915 9.243171 4.147389 -11.281623 7.023715 -14.831967 36.304518 6.938140 -14.305930 -23.251500 -28.346427 -19.592141 10.836942 -36.950462 -3.619564 -7.965384 118.818321 -63.085117 -103.494682 -3.797360 2.083274 0.925010 -0.092460 -0.065930 0.269400 9.241839 23.985127 2.559491 10.153283 26.515297 -9.059069 2.502303 63.251476 1.575009 1.431437 -1.570109 -0.380720 0.473660 -0.142830 -0.445750 
0.427650 15.864140 -1.074630 -4.733086 43.684828 -10.752575 -15.448768 11.054271 4.351758 38.751606 5.276409 -26.325260 -1.327098 20.286141 56.630596 0.515513 12.270505 0.302978 0.913860 0.373490 0.686380 18.468181 -10.167443 2.684635 -27.722961 5.570477 -29.867594 7.283621 -13.871435 47.700475 -1.003968 -8.000286 1.692440 0.361230 0.075990 0.068300 -4.741165 1.511636 -9.302040 19.826244 -2.580605 23.256964 -11.918782 2.807425 10.626814 9.156054 4.033634 -10.795246 7.411725 -12.299005 37.505439 5.447790 -11.902700 -22.596010 -27.009633 -19.629278 10.994464 -38.557157 -3.772531 -8.224047 110.605944 -63.859113 -92.197541 -3.723859 1.727023 0.890880 -0.089910 -0.029720 0.300260 8.729194 23.627503 1.653299 15.618390 31.293976 -6.645294 3.656529 64.527106 1.937959 1.426377 -1.580986 -0.319200 0.429420 -0.210280 -0.436540 
0.456750 15.768620 -1.072330 -6.223466 41.771373 -11.811265 -15.402263 11.374864 3.700826 40.233519 5.028086 -21.206607 1.177769 17.628591 52.424577 0.348616 11.361371 0.590497 1.002020 0.489740 0.740550 18.491940 -10.197972 2.954481 -27.191997 5.145480 -31.914014 7.517631 -14.710031 49.764754 -1.134371 -8.427132 1.560093 0.421070 0.061600 0.108870 -4.819342 1.448956 -9.124189 19.055928 -2.735628 20.372840 -10.019176 1.258473 11.551903 8.991976 4.645304 -10.155629 9.129502 -11.087033 38.548787 3.513970 -10.124590 -21.388000 -25.665779 -19.291683 10.372185 -39.634845 -5.311667 -8.161820 96.465087 -67.521152 -75.939849 -3.416360 0.974202 0.853590 -0.062300 0.004020 0.341560 8.378190 22.022964 1.078986 22.017318 35.145052 -2.993049 5.979734 64.597427 3.149603 1.409616 -1.588840 -0.268830 0.408920 -0.272520 -0.421750 
0.486240 15.702560 -1.098590 -7.284417 39.766731 -13.219210 -15.353600 11.764953 3.074753 40.893954 4.040160 -15.458040 2.812019 15.317538 47.928775 0.171462 10.480077 0.859822 1.100210 0.629500 0.815830 18.479960 -10.314909 3.148443 -26.660997 4.504276 -33.238501 7.400586 -15.016738 50.898259 -1.216593 -8.619564 1.485396 0.502880 0.007600 0.110160 -4.843406 1.339065 -8.890651 17.780078 -3.063059 18.473342 -8.253869 -0.344627 12.834959 9.029873 5.227986 -9.650153 11.147334 -9.618721 40.593651 2.394790 -7.781610 -21.448730 -24.465261 -19.479529 9.184387 -39.985627 -7.688608 -10.420257 71.320504 -71.951926 -53.751416 -2.998601 1.288453 0.842560 -0.070210 0.049720 0.355870 8.058666 20.775320 1.086307 29.526150 39.168482 0.707379 3.981387 62.607279 1.826175 1.375215 -1.507853 -0.234540 0.403110 -0.331790 -0.429400 
0.513180 15.634970 -1.134900 -7.858154 38.064925 -14.319247 -15.370719 12.118415 2.691063 41.134725 2.605767 -10.841530 3.473283 14.016560 45.106924 0.094896 10.009297 1.025767 1.174590 0.730090 0.848670 18.422648 -10.254922 3.268636 -26.634450 3.439884 -34.428097 7.213251 -15.454040 51.989370 -1.284982 -8.842856 1.411953 0.560970 -0.007370 0.117770 -4.584770 0.790926 -8.709449 15.090461 -3.524640 17.310476 -5.627777 -1.966178 14.032171 8.457344 5.171073 -9.384130 11.497410 -8.033499 42.819156 2.554280 -6.380990 -20.819520 -21.399003 -18.914893 8.090693 -40.672190 -11.100331 -9.184337 44.799925 -69.506839 -32.964270 -3.046780 2.290589 0.823610 -0.067270 0.069640 0.384170 6.983438 19.387187 1.182879 34.723811 41.550235 3.770684 6.834073 62.071225 3.291496 1.368524 -1.507042 -0.203860 0.398690 -0.373990 -0.418920 
0.536320 15.575260 -1.186570 -7.769485 35.580440 -14.909587 -15.449064 12.496937 2.436540 40.613403 1.421648 -6.601552 3.446960 13.538364 43.676332 0.104696 9.821601 1.093045 1.245840 0.821600 0.903980 18.302518 -10.091490 3.404491 -26.486966 2.873881 -35.848399 6.844360 -15.455269 52.831339 -1.326018 -8.960502 1.358717 0.601570 -0.054680 0.147700 -4.040418 0.014669 -8.549637 11.118411 -3.493518 16.751748 -2.423417 -2.876074 14.799745 7.983453 5.090152 -9.401969 11.704975 -6.726542 44.901277 1.354140 -4.751370 -19.675150 -19.303947 -18.533625 7.353369 -41.505734 -14.139454 -7.206229 30.419456 -64.047310 -21.206660 -3.105685 2.668115 0.790990 -0.061520 0.098900 0.389580 6.505849 19.109532 1.309088 37.091889 42.686746 5.675258 10.724424 60.987477 5.371468 1.399192 -1.559308 -0.147270 0.347240 -0.417390 -0.418480 
